<?xml version="1.0" encoding="UTF-8"?>
<!DOCTYPE svg PUBLIC "-//W3C//DTD SVG 1.1//EN" "http://www.w3.org/Graphics/SVG/1.1/DTD/svg11.dtd">
<!-- Creator: CorelDRAW 2026 -->
<svg xmlns="http://www.w3.org/2000/svg" xml:space="preserve" width="86.6986mm" height="86.6988mm" version="1.1" style="shape-rendering:geometricPrecision; text-rendering:geometricPrecision; image-rendering:optimizeQuality; fill-rule:evenodd; clip-rule:evenodd"
viewBox="0 0 7159.63 7159.64"
 xmlns:xlink="http://www.w3.org/1999/xlink"
 xmlns:xodm="http://www.corel.com/coreldraw/odm/2003">
 <defs>
  <style type="text/css">
   <![CDATA[
    .fil1 {fill:#9A71FA}
    .fil0 {fill:#E8E8E4}
   ]]>
  </style>
 </defs>
 <g id="Capa_x0020_1">
  <metadata id="CorelCorpID_0Corel-Layer"/>
  <g id="_2313530602960">
   <rect class="fil0" x="-0" y="0" width="7159.63" height="7159.63"/>
   <g>
    <path class="fil1" d="M4611.01 3644.74l-67.13 -5.29c-126.87,30.7 -77.58,24.81 -206.97,116.66 -77.01,54.68 -132.39,86.73 -219.48,122.43 -158.51,64.98 -362.16,111.79 -558.15,108.79 -549.49,-8.41 -743.76,-282.17 -967.7,-340.98l-45.68 -0.78c-181.42,57.12 -328.48,384.56 -375.04,638.75 -316.75,1728.78 1938.35,2418.57 2702.61,947.65 253.66,-488.17 144.09,-1385.55 -262.46,-1587.23z"/>
    <path class="fil1" d="M2545.89 3645.57l45.68 0.78c57.54,-187.01 117.89,-228.6 383.7,-354.14 382.25,-180.48 787.13,-185.24 1172.57,-11.59 320.01,144.19 379.52,182.31 396.03,358.83l67.13 5.29c42.42,-250.24 664.21,-784.61 287.24,-1666.89 -660.26,-1545.21 -3071.5,-831.87 -2718.34,875.02 27.4,132.49 90.22,302.59 150.21,409.27 152.2,270.67 164.73,130.35 215.78,383.43z"/>
   </g>
  </g>
 </g>
</svg>
